<?xml version="1.0"?>
<svg xmlns="http://www.w3.org/2000/svg" xmlns:xlink="http://www.w3.org/1999/xlink" xmlns:svgjs="http://svgjs.com/svgjs" version="1.1" width="512" height="512" x="0" y="0" viewBox="0 0 24 24" style="enable-background:new 0 0 512 512" xml:space="preserve"><g><path xmlns="http://www.w3.org/2000/svg" d="M18.589,0H5.411A5.371,5.371,0,0,0,0,5.318V7.182a1.5,1.5,0,0,0,3,0V5.318A2.369,2.369,0,0,1,5.411,3H18.589A2.369,2.369,0,0,1,21,5.318V18.682A2.369,2.369,0,0,1,18.589,21H5.411A2.369,2.369,0,0,1,3,18.682V16.818a1.5,1.5,0,1,0-3,0v1.864A5.371,5.371,0,0,0,5.411,24H18.589A5.371,5.371,0,0,0,24,18.682V5.318A5.371,5.371,0,0,0,18.589,0Z" fill="#000000" data-original="#000000"/><path xmlns="http://www.w3.org/2000/svg" d="M3.5,12A1.5,1.5,0,0,0,5,13.5H5l9.975-.027-3.466,3.466a1.5,1.5,0,0,0,2.121,2.122l4.586-4.586a3.5,3.5,0,0,0,0-4.95L13.634,4.939a1.5,1.5,0,1,0-2.121,2.122l3.413,3.412L5,10.5A1.5,1.5,0,0,0,3.5,12Z" fill="#000000" data-original="#000000"/></g></svg>
